# xmcd
#
# Track frame offsets:
#	150
#	29175
#	46854
#	68754
#	86976
#	103776
#	129726
#	144876
#	170739
#	193071
#
# Disc length: 3016 seconds
#
# Revision: 0
# Processed by: cddbd v1.5.2PL0 Copyright (c) Steve Scherf et al.
# Submitted via: EasyCDDAExtractor 9.1.0.1
#
DISCID=950bc60a
DTITLE=The Morricones - Tales of the Wasteland
DYEAR=2016
DGENRE=Country Rock
TTITLE0=Dead Man Walk On
TTITLE1=Sunny Cooper
TTITLE2=Davy Crockett
TTITLE3=Cheyenne Lady
TTITLE4=Lobo
TTITLE5=Carter
TTITLE6=Yucatán
TTITLE7=Chasing The Sun
TTITLE8=Lullaby
TTITLE9=Charles Bronson
EXTD=
EXTT0=
EXTT1=
EXTT2=
EXTT3=
EXTT4=
EXTT5=
EXTT6=
EXTT7=
EXTT8=
EXTT9=
PLAYORDER=
